HIERARCHY
ROOT Hips
{
	OFFSET 0.000000 100.481300 0.000000
	CHANNELS 6 Xposition Yposition Zposition Xrotation Yrotation Zrotation 
	JOINT Spine
	{
		OFFSET -0.279200 12.230698 -2.892100
		CHANNELS 3 Xrotation Yrotation Zrotation
		JOINT Spine1
		{
			OFFSET -0.232667 10.192268 -1.242267
			CHANNELS 3 Xrotation Yrotation Zrotation
			JOINT Spine1_split
			{
				OFFSET -0.232667 10.192268 -1.242267
				CHANNELS 3 Xrotation Yrotation Zrotation
				JOINT Spine2
				{
					OFFSET -0.232667 10.192268 -1.242267
					CHANNELS 3 Xrotation Yrotation Zrotation
					JOINT Neck
					{
						OFFSET -0.418800 17.814194 8.416900
						CHANNELS 3 Xrotation Yrotation Zrotation
						JOINT Head
						{
							OFFSET 0.000000 7.031097 3.806800
							CHANNELS 3 Xrotation Yrotation Zrotation
							JOINT HeadTop_End
							{
								OFFSET 0.000000 24.646606 12.978600
								CHANNELS 3 Xrotation Yrotation Zrotation
								End Site
								{
									OFFSET 0.000000 0.000000 0.000000
								}
							}
						}
					}
					JOINT LeftShoulder
					{
						OFFSET 8.476499 7.247704 -3.868750
						CHANNELS 3 Xrotation Yrotation Zrotation
						JOINT LeftShoulder_split
						{
							OFFSET 8.476499 7.247704 -3.868750
							CHANNELS 3 Xrotation Yrotation Zrotation
							JOINT LeftArm
							{
								OFFSET 9.308998 -2.777710 0.208600
								CHANNELS 3 Xrotation Yrotation Zrotation
								JOINT LeftForeArm
								{
									OFFSET 29.972298 0.000000 0.000000
									CHANNELS 3 Xrotation Yrotation Zrotation
									JOINT LeftHand
									{
										OFFSET 26.026505 0.000000 0.000000
										CHANNELS 3 Xrotation Yrotation Zrotation
										JOINT LeftHandThumb1
										{
											OFFSET 12.240501 -7.147949 9.207150
											CHANNELS 3 Xrotation Yrotation Zrotation
											JOINT LeftHandThumb2
											{
												OFFSET 4.138618 -2.389435 2.389433
												CHANNELS 3 Xrotation Yrotation Zrotation
												JOINT LeftHandThumb3
												{
													OFFSET 2.726913 -1.574387 1.574386
													CHANNELS 3 Xrotation Yrotation Zrotation
													JOINT LeftHandThumb4
													{
														OFFSET 3.941010 -2.275345 2.275342
														CHANNELS 3 Xrotation Yrotation Zrotation
														End Site
														{
															OFFSET 0.000000 0.000000 0.000000
														}
													}
												}
											}
										}
										JOINT LeftHandIndex1
										{
											OFFSET 24.424698 -1.985611 5.953459
											CHANNELS 3 Xrotation Yrotation Zrotation
											JOINT LeftHandIndex2
											{
												OFFSET 6.426697 0.000000 0.000000
												CHANNELS 3 Xrotation Yrotation Zrotation
												JOINT LeftHandIndex3
												{
													OFFSET 5.337898 0.000000 0.000000
													CHANNELS 3 Xrotation Yrotation Zrotation
													JOINT LeftHandIndex4
													{
														OFFSET 4.409401 0.000000 0.000000
														CHANNELS 3 Xrotation Yrotation Zrotation
														End Site
														{
															OFFSET 0.000000 0.000000 0.000000
														}
													}
												}
											}
										}
										JOINT LeftHandMiddle1
										{
											OFFSET 23.810104 0.000000 0.000000
											CHANNELS 3 Xrotation Yrotation Zrotation
											JOINT LeftHandMiddle2
											{
												OFFSET 7.176498 0.000000 0.000000
												CHANNELS 3 Xrotation Yrotation Zrotation
												JOINT LeftHandMiddle3
												{
													OFFSET 6.774902 0.000000 0.000000
													CHANNELS 3 Xrotation Yrotation Zrotation
													JOINT LeftHandMiddle4
													{
														OFFSET 5.403328 0.000000 0.000000
														CHANNELS 3 Xrotation Yrotation Zrotation
														End Site
														{
															OFFSET 0.000000 0.000000 0.000000
														}
													}
												}
											}
										}
										JOINT LeftHandRing1
										{
											OFFSET 22.908401 -0.839279 -6.020567
											CHANNELS 3 Xrotation Yrotation Zrotation
											JOINT LeftHandRing2
											{
												OFFSET 6.337502 0.000000 0.000000
												CHANNELS 3 Xrotation Yrotation Zrotation
												JOINT LeftHandRing3
												{
													OFFSET 5.779297 0.000000 0.000000
													CHANNELS 3 Xrotation Yrotation Zrotation
													JOINT LeftHandRing4
													{
														OFFSET 4.965698 0.000000 0.000000
														CHANNELS 3 Xrotation Yrotation Zrotation
														End Site
														{
															OFFSET 0.000000 0.000000 0.000000
														}
													}
												}
											}
										}
										JOINT LeftHandPinky1
										{
											OFFSET 20.037003 -1.530319 -10.950146
											CHANNELS 3 Xrotation Yrotation Zrotation
											JOINT LeftHandPinky2
											{
												OFFSET 5.254700 0.000000 0.000000
												CHANNELS 3 Xrotation Yrotation Zrotation
												JOINT LeftHandPinky3
												{
													OFFSET 4.810204 0.000000 0.000000
													CHANNELS 3 Xrotation Yrotation Zrotation
													JOINT LeftHandPinky4
													{
														OFFSET 3.647202 0.000000 0.000000
														CHANNELS 3 Xrotation Yrotation Zrotation
														End Site
														{
															OFFSET 0.000000 0.000000 0.000000
														}
													}
												}
											}
										}
									}
								}
							}
						}
					}
					JOINT RightShoulder
					{
						OFFSET -7.570500 7.247704 -3.868750
						CHANNELS 3 Xrotation Yrotation Zrotation
						JOINT RightShoulder_split
						{
							OFFSET -7.570500 7.247704 -3.868750
							CHANNELS 3 Xrotation Yrotation Zrotation
							JOINT RightArm
							{
								OFFSET -9.308998 -2.777710 0.208500
								CHANNELS 3 Xrotation Yrotation Zrotation
								JOINT RightForeArm
								{
									OFFSET -29.972300 0.000000 0.000000
									CHANNELS 3 Xrotation Yrotation Zrotation
									JOINT RightHand
									{
										OFFSET -26.026505 0.000000 0.000000
										CHANNELS 3 Xrotation Yrotation Zrotation
										JOINT RightHandThumb1
										{
											OFFSET -12.240601 -7.148026 9.207092
											CHANNELS 3 Xrotation Yrotation Zrotation
											JOINT RightHandThumb2
											{
												OFFSET -4.138618 -2.389435 2.389433
												CHANNELS 3 Xrotation Yrotation Zrotation
												JOINT RightHandThumb3
												{
													OFFSET -2.726974 -1.574417 1.574421
													CHANNELS 3 Xrotation Yrotation Zrotation
													JOINT RightHandThumb4
													{
														OFFSET -3.941010 -2.275345 2.275343
														CHANNELS 3 Xrotation Yrotation Zrotation
														End Site
														{
															OFFSET 0.000000 0.000000 0.000000
														}
													}
												}
											}
										}
										JOINT RightHandIndex1
										{
											OFFSET -24.424698 -1.985657 5.953444
											CHANNELS 3 Xrotation Yrotation Zrotation
											JOINT RightHandIndex2
											{
												OFFSET -6.426697 0.000000 0.000000
												CHANNELS 3 Xrotation Yrotation Zrotation
												JOINT RightHandIndex3
												{
													OFFSET -5.337898 0.000000 0.000000
													CHANNELS 3 Xrotation Yrotation Zrotation
													JOINT RightHandIndex4
													{
														OFFSET -4.409401 0.000000 0.000000
														CHANNELS 3 Xrotation Yrotation Zrotation
														End Site
														{
															OFFSET 0.000000 0.000000 0.000000
														}
													}
												}
											}
										}
										JOINT RightHandMiddle1
										{
											OFFSET -23.810097 0.000000 0.000000
											CHANNELS 3 Xrotation Yrotation Zrotation
											JOINT RightHandMiddle2
											{
												OFFSET -7.176498 0.000000 0.000000
												CHANNELS 3 Xrotation Yrotation Zrotation
												JOINT RightHandMiddle3
												{
													OFFSET -6.774902 0.000000 0.000000
													CHANNELS 3 Xrotation Yrotation Zrotation
													JOINT RightHandMiddle4
													{
														OFFSET -5.403328 0.000000 0.000000
														CHANNELS 3 Xrotation Yrotation Zrotation
														End Site
														{
															OFFSET 0.000000 0.000000 0.000000
														}
													}
												}
											}
										}
										JOINT RightHandRing1
										{
											OFFSET -22.908302 -0.839325 -6.020576
											CHANNELS 3 Xrotation Yrotation Zrotation
											JOINT RightHandRing2
											{
												OFFSET -6.337502 0.000000 0.000000
												CHANNELS 3 Xrotation Yrotation Zrotation
												JOINT RightHandRing3
												{
													OFFSET -5.779297 0.000000 0.000000
													CHANNELS 3 Xrotation Yrotation Zrotation
													JOINT RightHandRing4
													{
														OFFSET -4.965698 0.000000 0.000000
														CHANNELS 3 Xrotation Yrotation Zrotation
														End Site
														{
															OFFSET 0.000000 0.000000 0.000000
														}
													}
												}
											}
										}
										JOINT RightHandPinky1
										{
											OFFSET -20.037003 -1.530334 -10.950259
											CHANNELS 3 Xrotation Yrotation Zrotation
											JOINT RightHandPinky2
											{
												OFFSET -5.254700 0.000000 0.000000
												CHANNELS 3 Xrotation Yrotation Zrotation
												JOINT RightHandPinky3
												{
													OFFSET -4.810204 0.000000 0.000000
													CHANNELS 3 Xrotation Yrotation Zrotation
													JOINT RightHandPinky4
													{
														OFFSET -3.647202 0.000000 0.000000
														CHANNELS 3 Xrotation Yrotation Zrotation
														End Site
														{
															OFFSET 0.000000 0.000000 0.000000
														}
													}
												}
											}
										}
									}
								}
							}
						}
					}
				}
			}
		}
	}
	JOINT LeftUpLeg
	{
		OFFSET 15.427100 -6.655098 0.678600
		CHANNELS 3 Xrotation Yrotation Zrotation
		JOINT LeftLeg
		{
			OFFSET 4.081073 -39.591068 13.024000
			CHANNELS 3 Xrotation Yrotation Zrotation
			JOINT LeftFoot
			{
				OFFSET -4.081074 -37.707932 -15.979700
				CHANNELS 3 Xrotation Yrotation Zrotation
				JOINT LeftToeBase
				{
					OFFSET 5.346399 -15.068900 20.645000
					CHANNELS 3 Xrotation Yrotation Zrotation
					JOINT LeftToe_End
					{
						OFFSET 2.754700 0.931300 11.300900
						CHANNELS 3 Xrotation Yrotation Zrotation
						End Site
						{
							OFFSET 0.000000 0.000000 0.000000
						}
					}
				}
			}
		}
	}
	JOINT RightUpLeg
	{
		OFFSET -15.569500 -6.655098 0.678600
		CHANNELS 3 Xrotation Yrotation Zrotation
		JOINT RightLeg
		{
			OFFSET -4.081825 -39.591045 13.023800
			CHANNELS 3 Xrotation Yrotation Zrotation
			JOINT RightFoot
			{
				OFFSET 4.081824 -37.707954 -15.979600
				CHANNELS 3 Xrotation Yrotation Zrotation
				JOINT RightToeBase
				{
					OFFSET -5.346400 -15.068900 20.645000
					CHANNELS 3 Xrotation Yrotation Zrotation
					JOINT RightToe_End
					{
						OFFSET -2.754700 0.931300 11.300900
						CHANNELS 3 Xrotation Yrotation Zrotation
						End Site
						{
							OFFSET 0.000000 0.000000 0.000000
						}
					}
				}
			}
		}
	}
}
MOTION
Frames: 5
Frame Time: 0.016667
0.315225 111.207802 4.572159 -90.807980 -2.074404 1.526235 0.699105 -0.134368 -0.677225 0.841690 0.154199 -0.463160 0.000000 0.000000 0.000000 0.831251 0.158014 -0.488484 -3.902736 4.009046 -8.413907 2.479704 8.403992 -12.879456 -0.000000 0.000001 -0.000001 0.834125 -6.730775 -3.480306 0.000000 0.000000 0.000000 44.076577 -39.845855 -34.620918 0.000627 -83.340500 0.000590 -23.114878 -8.492745 7.463161 -1.945764 1.585340 13.204800 8.601847 21.114946 -0.258283 -4.250531 28.326760 20.005260 -0.000001 0.000003 -0.000003 0.776307 5.158033 -28.512492 0.566017 2.514183 -25.370934 0.306467 1.871744 -18.596433 -0.000003 -0.000001 -0.000002 0.776306 5.158037 -28.512490 0.566016 2.514180 -25.370937 0.084756 0.994021 -9.747970 -0.000000 0.000000 -0.000001 0.776307 5.158033 -28.512492 0.351473 2.000425 -19.928006 0.131448 1.235365 -12.147801 0.000001 -0.000000 -0.000001 0.776306 5.158027 -28.512495 0.064899 0.870539 -8.527013 0.131456 1.235374 -12.147806 -0.000002 -0.000000 0.000000 0.483607 4.500679 3.202687 0.000000 0.000000 0.000000 -4.326311 2.268498 83.611508 0.000053 129.571967 -0.000061 -0.045398 -5.712111 64.766777 -1.120889 -3.665703 -6.555844 8.244850 -30.620780 -3.274804 -5.098242 -8.587473 -15.375847 0.000002 0.000000 -0.000001 4.540615 -8.344327 48.387403 6.575530 -4.244501 114.349080 1.886316 -3.744684 53.459781 -0.000002 -0.000000 0.000002 2.375476 -6.542195 44.640207 7.222607 -3.888183 123.454795 1.885857 -3.744348 53.452661 0.000004 0.000001 -0.000001 2.745574 -6.923870 44.442296 7.225010 -3.886586 123.490312 1.886183 -3.744587 53.457811 0.000003 -0.000001 0.000001 -10.268027 -14.528487 47.436289 6.314157 -4.353041 110.862904 1.885493 -3.744060 53.447183 0.000002 -0.000000 0.000000 -4.122741 19.565514 16.251108 3.682238 1.831594 1.412014 23.218581 29.907448 -26.295470 -1.872558 0.000006 0.000008 -0.000000 -0.000002 0.000000 -6.586333 -19.056854 -18.636033 4.913700 -5.227312 -3.849565 33.312530 -30.531038 31.892185 -4.604374 0.000021 -0.000017 0.000001 0.000001 -0.000000 
0.315594 111.207787 4.573418 -90.808704 -2.074098 1.527242 0.699129 -0.134380 -0.677016 0.841696 0.154199 -0.463160 0.000000 0.000000 0.000000 0.831235 0.158014 -0.488483 -3.911642 4.013355 -8.413902 2.496869 8.457174 -12.890522 -0.000000 0.000001 0.000000 0.834526 -6.714838 -3.485307 0.000000 0.000000 0.000000 44.088980 -39.859481 -34.587685 -0.000322 -83.340534 -0.000333 -23.122552 -8.493326 7.462402 -1.945766 1.585341 13.204801 8.601848 21.114949 -0.258284 -4.250533 28.326762 20.005262 0.000000 -0.000001 -0.000002 0.776306 5.158035 -28.512486 0.566019 2.514182 -25.370934 0.306466 1.871747 -18.596435 0.000003 -0.000001 -0.000003 0.776305 5.158035 -28.512486 0.566020 2.514182 -25.370936 0.084758 0.994022 -9.747972 -0.000001 0.000001 -0.000003 0.776306 5.158035 -28.512486 0.351472 2.000424 -19.928006 0.131453 1.235365 -12.147805 0.000000 -0.000000 -0.000001 0.776305 5.158031 -28.512492 0.064900 0.870542 -8.527014 0.131458 1.235371 -12.147806 0.000001 0.000002 -0.000001 0.484292 4.488121 3.202633 0.000000 0.000000 0.000000 -4.331812 2.278521 83.612464 -0.000003 129.566571 0.000011 -0.044852 -5.712106 64.772350 -1.120890 -3.665704 -6.555848 8.244844 -30.620783 -3.274806 -5.098248 -8.587475 -15.375849 -0.000002 -0.000000 0.000001 4.540612 -8.344328 48.387403 6.575534 -4.244499 114.349074 1.886312 -3.744687 53.459785 -0.000002 0.000001 -0.000000 2.375482 -6.542195 44.640207 7.222610 -3.888183 123.454795 1.885855 -3.744348 53.452664 0.000001 -0.000001 -0.000001 2.745569 -6.923871 44.442292 7.225011 -3.886587 123.490312 1.886178 -3.744588 53.457814 0.000001 -0.000001 -0.000003 -10.268031 -14.528489 47.436292 6.314156 -4.353040 110.862897 1.885495 -3.744058 53.447183 -0.000001 0.000000 -0.000001 -4.123469 19.565391 16.249187 3.685330 1.818675 1.412844 23.219185 29.906646 -26.293162 -1.869949 -0.000005 -0.000002 -0.000001 -0.000001 0.000000 -6.587876 -19.056383 -18.635493 4.914889 -5.221141 -3.849872 33.312110 -30.531099 31.891229 -4.609529 0.000009 0.000001 0.000001 0.000000 -0.000001 
0.316456 111.207924 4.574783 -90.809749 -2.073695 1.528041 0.699070 -0.134409 -0.676669 0.841681 0.154199 -0.463160 0.000000 0.000000 0.000000 0.831241 0.158014 -0.488483 -3.937780 4.024675 -8.413907 2.565396 8.514523 -12.913617 -0.000000 0.000000 0.000000 0.834870 -6.690142 -3.495207 0.000000 0.000000 0.000000 44.105848 -39.875047 -34.542920 0.000142 -83.340513 0.000131 -23.131805 -8.494016 7.461470 -1.945768 1.585338 13.204800 8.601847 21.114949 -0.258289 -4.250531 28.326762 20.005262 0.000003 -0.000002 -0.000000 0.776306 5.158032 -28.512486 0.566017 2.514179 -25.370934 0.306468 1.871741 -18.596431 -0.000003 0.000001 0.000001 0.776304 5.158036 -28.512486 0.566020 2.514180 -25.370939 0.084760 0.994019 -9.747973 0.000000 0.000001 0.000001 0.776306 5.158032 -28.512486 0.351475 2.000422 -19.928004 0.131450 1.235363 -12.147803 0.000002 -0.000001 -0.000001 0.776302 5.158028 -28.512490 0.064898 0.870542 -8.527012 0.131457 1.235372 -12.147807 -0.000000 -0.000002 -0.000000 0.485156 4.473281 3.202567 0.000000 0.000000 0.000000 -4.337904 2.290714 83.617635 0.000034 129.559919 -0.000036 -0.044336 -5.712106 64.777500 -1.120891 -3.665704 -6.555847 8.244852 -30.620780 -3.274804 -5.098245 -8.587474 -15.375850 0.000002 -0.000001 0.000000 4.540613 -8.344327 48.387396 6.575536 -4.244499 114.349080 1.886313 -3.744685 53.459788 -0.000004 -0.000001 -0.000000 2.375480 -6.542194 44.640207 7.222610 -3.888186 123.454795 1.885855 -3.744349 53.452671 0.000001 0.000002 0.000000 2.745572 -6.923869 44.442292 7.225006 -3.886588 123.490312 1.886180 -3.744587 53.457811 -0.000000 0.000001 -0.000001 -10.268026 -14.528487 47.436289 6.314156 -4.353043 110.862897 1.885494 -3.744060 53.447190 0.000002 0.000001 -0.000001 -4.123222 19.565470 16.247273 3.689235 1.807827 1.413814 23.216829 29.904955 -26.291205 -1.862403 0.000002 0.000001 -0.000000 -0.000001 -0.000000 -6.590233 -19.061146 -18.634127 4.916712 -5.209433 -3.850097 33.310843 -30.531256 31.888849 -4.623019 -0.000001 0.000011 0.000002 0.000001 -0.000000 
0.317810 111.208359 4.576637 -90.810978 -2.073084 1.528460 0.699077 -0.134471 -0.676039 0.841699 0.154198 -0.463160 0.000000 0.000000 0.000000 0.831234 0.158014 -0.488483 -3.979802 4.042044 -8.413906 2.683961 8.574673 -12.963797 0.000000 -0.000001 0.000001 0.835179 -6.657530 -3.509655 0.000000 0.000000 0.000000 44.126867 -39.892420 -34.487579 -0.000211 -83.340513 -0.000200 -23.142498 -8.494817 7.460364 -1.945764 1.585342 13.204804 8.601845 21.114946 -0.258285 -4.250536 28.326765 20.005262 -0.000001 -0.000000 -0.000000 0.776308 5.158033 -28.512490 0.566020 2.514178 -25.370934 0.306466 1.871742 -18.596438 0.000001 -0.000002 -0.000002 0.776304 5.158037 -28.512490 0.566018 2.514182 -25.370934 0.084757 0.994021 -9.747971 -0.000002 -0.000001 0.000002 0.776308 5.158033 -28.512490 0.351476 2.000423 -19.928004 0.131450 1.235366 -12.147805 0.000003 0.000002 -0.000002 0.776305 5.158030 -28.512490 0.064894 0.870543 -8.527013 0.131455 1.235370 -12.147806 0.000001 -0.000001 -0.000001 0.486100 4.456129 3.202492 0.000000 0.000000 0.000000 -4.344474 2.305360 83.623078 -0.000003 129.552078 0.000012 -0.043860 -5.712120 64.782384 -1.120890 -3.665704 -6.555849 8.244854 -30.620780 -3.274808 -5.098245 -8.587474 -15.375849 -0.000003 -0.000001 0.000001 4.540612 -8.344326 48.387399 6.575534 -4.244500 114.349074 1.886316 -3.744686 53.459785 -0.000000 0.000001 -0.000001 2.375479 -6.542196 44.640207 7.222610 -3.888185 123.454795 1.885854 -3.744346 53.452671 -0.000001 0.000000 -0.000001 2.745568 -6.923870 44.442296 7.225013 -3.886586 123.490312 1.886187 -3.744586 53.457811 0.000001 0.000001 -0.000000 -10.268033 -14.528489 47.436289 6.314155 -4.353041 110.862897 1.885494 -3.744058 53.447183 0.000002 0.000000 -0.000001 -4.125591 19.571665 16.246081 3.694321 1.809112 1.414849 23.208650 29.902763 -26.290720 -1.850341 -0.000014 -0.000000 -0.000000 -0.000000 0.000000 -6.591654 -19.070465 -18.633963 4.919631 -5.206208 -3.849202 33.309142 -30.531974 31.888463 -4.644844 0.000007 0.000001 0.000000 -0.000000 -0.000000 
0.319369 111.209160 4.578194 -90.812426 -2.072559 1.528928 0.699110 -0.134526 -0.675536 0.841705 0.154199 -0.463161 0.000000 0.000000 0.000000 0.835888 0.158014 -0.488483 -4.036192 4.064475 -8.413907 2.850470 8.636297 -13.049387 0.000000 0.000001 -0.000001 0.835477 -6.617841 -3.528196 0.000000 0.000000 0.000000 44.151449 -39.911172 -34.423033 -0.000046 -83.340513 -0.000060 -23.154338 -8.495698 7.459181 -1.945765 1.585337 13.204802 8.601846 21.114948 -0.258288 -4.250525 28.326762 20.005262 -0.000002 0.000001 0.000001 0.776306 5.158031 -28.512492 0.566016 2.514181 -25.370932 0.306466 1.871746 -18.596431 -0.000001 0.000003 -0.000003 0.776309 5.158038 -28.512495 0.566019 2.514183 -25.370936 0.084763 0.994016 -9.747970 0.000001 0.000001 -0.000001 0.776306 5.158031 -28.512492 0.351475 2.000425 -19.928006 0.131451 1.235364 -12.147801 0.000001 0.000000 0.000002 0.776305 5.158026 -28.512490 0.064896 0.870539 -8.527013 0.131457 1.235371 -12.147804 -0.000001 -0.000001 -0.000000 0.487200 4.436631 3.202407 0.000000 0.000000 0.000000 -4.352109 2.322245 83.628809 -0.000009 129.543034 0.000006 -0.043395 -5.712114 64.786988 -1.120888 -3.665703 -6.555848 8.244849 -30.620773 -3.274801 -5.098246 -8.587476 -15.375850 -0.000000 0.000000 0.000001 4.540613 -8.344327 48.387399 6.575531 -4.244500 114.349074 1.886318 -3.744680 53.459781 -0.000001 0.000001 -0.000000 2.375481 -6.542195 44.640207 7.222611 -3.888185 123.454795 1.885857 -3.744346 53.452671 -0.000008 -0.000001 -0.000001 2.745572 -6.923870 44.442292 7.225011 -3.886586 123.490312 1.886186 -3.744585 53.457811 0.000000 0.000001 0.000002 -10.268021 -14.528487 47.436289 6.314158 -4.353040 110.862904 1.885494 -3.744058 53.447190 0.000003 0.000000 -0.000001 -4.131872 19.579845 16.241319 3.698344 1.782351 1.416769 23.206198 29.899580 -26.285199 -1.833860 0.000002 0.000013 -0.000000 -0.000001 0.000000 -6.594244 -19.082247 -18.632510 4.922180 -5.192782 -3.849125 33.304108 -30.529467 31.881957 -4.673526 0.000026 -0.000034 -0.000000 0.000001 -0.000000 
